<?xml version="1.0" encoding="utf-8"?>
<?xml-stylesheet type="text/xsl" href="rss1.xsl"?>
<rss version="2.0" xmlns:atom="http://www.w3.org/2005/Atom" xmlns:content="http://purl.org/rss/1.0/modules/content/" xmlns:dc="http://purl.org/dc/elements/1.1/" xmlns:media="http://search.yahoo.com/mrss/">
<channel>
 <title>Getty</title>
 <link>http://www.gettyimg.com/</link>
 <atom:link href="http://www.gettyimg.com/" rel="self" type="application/rss+xml" />

 
                <item>
                <title><![CDATA[【Albums (lossy)】M4A - Taylor Swift - Speak Now (Taylor's Version) (Deluxe)]]></title>
                <link><![CDATA[https://sharemania.us/threads/taylor-swift-speak-now-taylors-version-deluxe.229509/]]></link>
                <description><![CDATA[<article>
<blockquote class="messageText SelectQuoteContainer ugc baseHtml">
<span style="font-size: 26px"><span style="color: #b30000"><b>Speak Now (Taylor's Version) (Deluxe)</b></span></span><br>
<span style="color: #000000"><span style="font-size: 15px">This is the fan made deluxe of Speak Now (Taylor's Version) This version includes a bunch of international, and acoustic remixes. The Live versions of Last Kiss and Dear John from the Eras Tour are included, along with a bonus track Last Kiss (Piano Version) (Taylor's Version). This includes an alternate album cover.<br>
<img src="https://i.ibb.co/CtwJCLt/image-2023-09-24-150058087-transformed.png" class="bbCodeImage LbImage" alt="[​IMG]" data-url="https://i.ibb.co/CtwJCLt/image-2023-09-24-150058087-transformed.png" style=""> </span></span><br>
<span style="font-size: 18px"><span style="color: #000000">Tracklist:</span></span><br>
<span style="color: #000000"><span style="font-size: 15px">1. Mine (Taylor's Version)<br>
2. Sparks Fly (Taylor's Version)<br>
3. Back To December (Taylor's Version)<br>
4. Speak Now (Taylor's Version)<br>
5. Dear John (Taylor's Version)<br>
6. Mean (Taylor's Version)<br>
7. The Story Of Us (Taylor's Version)<br>
8. Never Grow Up (Taylor's Version)<br>
9. Enchanted (Taylor's Version)<br>
10. Better Than Revenge (Taylor's Version)<br>
11. Innocent (Taylor's Version)<br>
12. Haunted (Taylor's Version)<br>
13. Last Kiss (Taylor's Version)<br>
14. Long Live (Taylor's Version)<br>
15. Ours (Taylor's Version)<br>
16. If This Was A Movie (Taylor's Version)<br>
17. Superman (Taylor's Version)<br>
18. Dear John (Live From Minneapolis)<br>
19. Last Kiss (Live From Kansas City)<br>
20. Back To December (Acoustic Version) (Taylor's Version)<br>
21. Haunted (Acoustic Version) (Taylor's Version)<br>
22. Mine (POP Mix) (Taylor's Version)<br>
23. Back To December (International Version) (Taylor's Version)<br>
24. The Story Of Us (International Version) (Taylor's Version)<br>
25. Last Kiss (Piano Version) (Taylor's Version)<br>
26. Electric Touch (Taylor's Version) (From The Vault) [feat. Fall Out Boy]<br>
27. When Emma Falls In Love (Taylor's Version) (From The Vault)<br>
28. I Can See You (Taylor's Version) (From The Vault)<br>
29. Castles Crumbling (Taylor's Version) (From The Vault)<br>
30. Foolish One (Taylor's Version) (From The Vault)<br>
31. Timeless (Taylor's Version) (From The Vault)<br>
<br>
<div class="bbCodeBlock bbCodeVfcHH HiddenContent">
<div class="attribution type">Hidden Content:</div>
<blockquote>You must reply before you can see the hidden data contained here.</blockquote>
</div></span></span>
<div class="messageTextEndMarker">&nbsp;</div>
</blockquote>
</article>]]></description>
                <author><![CDATA[taylorbetty]]></author>
                </item>

                
                <item>
                <title><![CDATA[【PRORES HD】HA-ASH  Feat. REIK - TE ACUERDAS |ProRes 4K|]]></title>
                <link><![CDATA[https://sharemania.us/threads/ha-ash-feat-reik-te-acuerdas-prores-4k.229508/]]></link>
                <description><![CDATA[<article>
<blockquote class="messageText SelectQuoteContainer ugc baseHtml">
<div style="text-align: center"><img src="https://i.imgur.com/fxgazKl.gif" class="bbCodeImage LbImage" alt="[​IMG]" data-url="https://i.imgur.com/fxgazKl.gif" style=""><br>
​</div>
<div class="ToggleTriggerAnchor bbCodeSpoilerContainer">
<button type="button" class="button bbCodeSpoilerButton ToggleTrigger Tooltip JsOnly" data-target="> .SpoilerTarget"><span>Spoiler: <span class="SpoilerTitle">ProRes</span></span></button>
<div class="SpoilerTarget bbCodeSpoilerText">
<div class="bbCodeBlock bbCodeCode">
<div class="type">Code:</div>
<pre>Format                                   : MPEG-4
Format profile                           : QuickTime
Codec ID                                 : qt   2005.03 (qt  )
File size                                : 17.3 GiB
Duration                                 : 3 min 46 s
Overall bit rate mode                    : Variable
Overall bit rate                         : 657 Mb/s
Encoded date                             : UTC 2023-07-19 23:20:38
Tagged date                              : UTC 2023-07-19 23:28:38
Writing library                          : Apple QuickTime
TIM                                      : 00:00:00:00
TSC                                      : 24000
TSZ                                      : 1001

Video
ID                                       : 1
Format                                   : ProRes
Format version                           : Version 0
Format profile                           : 422 HQ
Codec ID                                 : apch
Duration                                 : 3 min 46 s
Bit rate mode                            : Variable
Bit rate                                 : 656 Mb/s
Width                                    : 3 840 pixels
Height                                   : 2 160 pixels
Display aspect ratio                     : 16:9
Frame rate mode                          : Constant
Frame rate                               : 23.976 (24000/1001) FPS
Color space                              : YUV
Chroma subsampling                       : 4:2:2
Scan type                                : Progressive
Bits/(Pixel*Frame)                       : 3.297
Stream size                              : 17.3 GiB (100%)
Writing library                          : Apple
Language                                 : English
Encoded date                             : UTC 2023-07-19 23:20:38
Tagged date                              : UTC 2023-07-19 23:20:38
Color primaries                          : BT.709
Transfer characteristics                 : BT.709
Matrix coefficients                      : BT.709

Audio
ID                                       : 2
Format                                   : PCM
Format settings                          : Little / Signed
Codec ID                                 : sowt
Duration                                 : 3 min 46 s
Bit rate mode                            : Constant
Bit rate                                 : 1 536 kb/s
Channel(s)                               : 2 channels
Channel layout                           : L R
Sampling rate                            : 48.0 kHz
Bit depth                                : 16 bits
Stream size                              : 41.4 MiB (0%)
Language                                 : English
Encoded date                             : UTC 2023-07-19 23:20:38
Tagged date                              : UTC 2023-07-19 23:20:38

Other
ID                                       : 3
Type                                     : Time code
Format                                   : QuickTime TC
Duration                                 : 3 min 46 s
Frame rate                               : 23.976 (24000/1001) FPS
Time code of first frame                 : 00:00:00:00
Time code, striped                       : Yes
Language                                 : English
Encoded date                             : UTC 2023-07-19 23:20:38
Tagged date                              : UTC 2023-07-19 23:20:38</pre>
</div><div style="text-align: center">​</div></div>
</div><div style="text-align: center"><br>
<br>
<div class="bbCodeBlock bbCodeVfcHH HiddenContent">
<div class="attribution type">Hidden Content:</div>
<blockquote>You must reply before you can see the hidden data contained here.</blockquote>
</div></div>
<div class="messageTextEndMarker">&nbsp;</div>
</blockquote>
</article>]]></description>
                <author><![CDATA[fstambuk]]></author>
                </item>

                </channel></rss>